<?xml version="1.0" encoding="utf-8"?>
<!-- Generator: Adobe Illustrator 24.0.0, SVG Export Plug-In . SVG Version: 6.00 Build 0)  -->
<svg version="1.1" id="Camada_1" xmlns="http://www.w3.org/2000/svg" xmlns:xlink="http://www.w3.org/1999/xlink" x="0px" y="0px"
	 viewBox="0 0 130 70" style="enable-background:new 0 0 130 70;" xml:space="preserve">
<style type="text/css">
	.st0{fill:#003E98;}
	.st1{fill:#00AECC;}
	.st2{fill:#6A7F98;}
</style>
<g>
	<polygon class="st0" points="5.7,26.3 5.7,33.4 12.1,29.8 41.6,13.7 41.6,7.3 	"/>
	<g>
		<rect x="28.4" y="38.8" class="st1" width="4.4" height="4.4"/>
		<rect x="28.4" y="47.6" class="st1" width="4.4" height="4.4"/>
		<rect x="37.2" y="38.8" class="st1" width="4.4" height="4.4"/>
		<rect x="37.2" y="47.6" class="st1" width="4.4" height="4.4"/>
	</g>
	<polygon class="st1" points="41.6,60.6 41.6,56.3 33.4,56.3 18.2,56.3 12.1,56.3 12.1,36.2 5.7,39.7 5.7,56.3 5.7,59.5 5.7,62.7 
		5.8,62.7 18.2,62.7 33.4,62.7 41.6,62.7 41.6,62.7 41.6,60.6 	"/>
	<path class="st2" d="M59.2,19.3V46h14v5.6H53V19.3H59.2z"/>
	<path class="st2" d="M92.7,24.6c-6.1,0-10.9,4.7-10.9,10.7c0,6.1,4.8,10.8,10.9,10.8c3.1,0,6.4-1.4,8.8-3.8l3.7,4.1
		c-3.3,3.4-8.1,5.5-12.8,5.5c-9.5,0-16.9-7.2-16.9-16.5c0-9.2,7.4-16.3,17.1-16.3c4.6,0,9.3,2,12.5,5.2l-3.6,4.5
		C99.1,26.2,95.9,24.6,92.7,24.6z"/>
	<g>
		<path class="st2" d="M59.2,59.7c0,1.6-1.3,2.9-3,2.9s-3-1.3-3-2.9c0-1.6,1.3-2.8,3-2.8S59.2,58,59.2,59.7z M54.2,59.7
			c0,1.1,0.9,2,2,2c1.1,0,2-0.9,2-2s-0.9-2-2-2C55.1,57.7,54.2,58.5,54.2,59.7z"/>
		<path class="st2" d="M64.7,60.4c0,1.3-0.8,2.2-2,2.2c-0.7,0-1.2-0.3-1.5-0.8v0.7h-0.9v-6h0.9v2.4c0.3-0.5,0.8-0.8,1.5-0.8
			C63.9,58.2,64.7,59,64.7,60.4z M63.8,60.3c0-0.8-0.5-1.4-1.3-1.4s-1.3,0.6-1.3,1.4c0,0.8,0.5,1.4,1.3,1.4S63.8,61.1,63.8,60.3z"/>
		<path class="st2" d="M68.1,58.2V59c-0.9,0-1.4,0.5-1.5,1.2v2.2h-0.9v-4.3h0.9V59C66.9,58.5,67.4,58.2,68.1,58.2z"/>
		<path class="st2" d="M71.3,62.5V62c-0.3,0.4-0.8,0.6-1.4,0.6c-0.9,0-1.5-0.6-1.5-1.3c0-0.8,0.6-1.3,1.6-1.3h1.3v-0.1
			c0-0.5-0.3-0.9-1-0.9c-0.4,0-0.8,0.1-1.3,0.4l-0.4-0.6c0.6-0.4,1-0.5,1.8-0.5c1.1,0,1.7,0.6,1.7,1.5l0,2.8H71.3z M71.3,61v-0.4
			h-1.2c-0.6,0-0.9,0.2-0.9,0.6c0,0.4,0.3,0.6,0.8,0.6C70.7,61.8,71.2,61.4,71.3,61z"/>
		<path class="st2" d="M74.6,58.9c-0.4,0-0.6,0.1-0.6,0.4c0,0.8,2.3,0.4,2.3,1.9c0,0.9-0.8,1.3-1.6,1.3c-0.6,0-1.3-0.2-1.7-0.6
			l0.3-0.7c0.4,0.3,1,0.5,1.4,0.5c0.4,0,0.7-0.1,0.7-0.5c0-0.9-2.3-0.4-2.3-1.9c0-0.9,0.8-1.2,1.6-1.2c0.5,0,1.1,0.2,1.5,0.4
			l-0.3,0.7C75.5,59,75,58.9,74.6,58.9z"/>
		<path class="st2" d="M83.4,60.7h-3.2c0.1,0.7,0.7,1.1,1.3,1.1c0.5,0,0.9-0.2,1.2-0.5l0.5,0.5c-0.4,0.5-1,0.7-1.8,0.7
			c-1.3,0-2.2-0.9-2.2-2.2c0-1.3,0.9-2.2,2.2-2.2C82.9,58.2,83.5,59.1,83.4,60.7z M82.6,60c0-0.7-0.5-1.1-1.2-1.1
			c-0.7,0-1.2,0.4-1.3,1.1H82.6z"/>
		<path class="st2" d="M90.5,62.5l-1-1.7c-0.1,0-0.2,0-0.3,0h-1.3v1.7h-1v-5.7h2.3c1.4,0,2.3,0.7,2.3,1.9c0,0.9-0.4,1.5-1.2,1.8
			l1.3,1.9H90.5z M89.2,59.9c0.9,0,1.4-0.4,1.4-1.1c0-0.7-0.5-1.1-1.4-1.1h-1.3v2.2H89.2z"/>
		<path class="st2" d="M96.4,60.7h-3.2c0.1,0.7,0.7,1.1,1.3,1.1c0.5,0,0.9-0.2,1.2-0.5l0.5,0.5c-0.4,0.5-1,0.7-1.8,0.7
			c-1.3,0-2.2-0.9-2.2-2.2c0-1.3,0.9-2.2,2.2-2.2C95.9,58.2,96.5,59.1,96.4,60.7z M95.6,60c0-0.7-0.5-1.1-1.2-1.1
			c-0.7,0-1.2,0.4-1.3,1.1H95.6z"/>
		<path class="st2" d="M98.5,57.8v0.5h1.1V59h-1.1v3.4h-0.9V59H97v-0.7h0.6v-0.4c0-1,0.7-1.5,1.5-1.5c0.3,0,0.7,0.1,1,0.3l-0.4,0.7
			c-0.2-0.1-0.4-0.2-0.6-0.2C98.7,57.3,98.5,57.4,98.5,57.8z"/>
		<path class="st2" d="M104.1,60.3c0,1.3-0.9,2.2-2.2,2.2c-1.3,0-2.2-0.9-2.2-2.2c0-1.3,0.9-2.2,2.2-2.2
			C103.2,58.2,104.1,59,104.1,60.3z M100.6,60.3c0,0.8,0.5,1.4,1.3,1.4c0.8,0,1.3-0.6,1.3-1.4c0-0.8-0.5-1.4-1.3-1.4
			C101.1,59,100.6,59.5,100.6,60.3z"/>
		<path class="st2" d="M107.5,58.2V59c-0.9,0-1.4,0.5-1.5,1.2v2.2h-0.9v-4.3h0.9V59C106.3,58.5,106.8,58.2,107.5,58.2z"/>
		<path class="st2" d="M115.4,59.8v2.7h-0.9v-2.4c0-0.7-0.4-1-1-1c-0.7,0-1.2,0.6-1.2,1.3v2.1h-0.9v-2.4c0-0.7-0.4-1-1-1
			c-0.7,0-1.2,0.6-1.2,1.3v2.1h-0.9v-4.3h0.9V59c0.3-0.6,0.8-0.9,1.6-0.9c0.8,0,1.3,0.4,1.5,1c0.3-0.7,0.8-1,1.6-1
			C114.8,58.2,115.4,58.8,115.4,59.8z"/>
		<path class="st2" d="M119.3,62.5V62c-0.3,0.4-0.8,0.6-1.4,0.6c-0.9,0-1.5-0.6-1.5-1.3c0-0.8,0.6-1.3,1.6-1.3h1.3v-0.1
			c0-0.5-0.3-0.9-1-0.9c-0.4,0-0.8,0.1-1.3,0.4l-0.4-0.6c0.6-0.4,1-0.5,1.8-0.5c1.1,0,1.7,0.6,1.7,1.5l0,2.8H119.3z M119.2,61v-0.4
			h-1.2c-0.6,0-0.9,0.2-0.9,0.6c0,0.4,0.3,0.6,0.8,0.6C118.7,61.8,119.2,61.4,119.2,61z"/>
		<path class="st2" d="M122.6,58.9c-0.4,0-0.6,0.1-0.6,0.4c0,0.8,2.3,0.4,2.3,1.9c0,0.9-0.8,1.3-1.6,1.3c-0.6,0-1.3-0.2-1.7-0.6
			l0.3-0.7c0.4,0.3,1,0.5,1.4,0.5c0.4,0,0.7-0.1,0.7-0.5c0-0.9-2.3-0.4-2.3-1.9c0-0.9,0.8-1.2,1.6-1.2c0.5,0,1.1,0.2,1.5,0.4
			l-0.3,0.7C123.5,59,123,58.9,122.6,58.9z"/>
	</g>
</g>
</svg>
